<?xml version="1.0" standalone="no"?><!DOCTYPE svg PUBLIC "-//W3C//DTD SVG 1.1//EN" "http://www.w3.org/Graphics/SVG/1.1/DTD/svg11.dtd"><svg t="1553742148015" class="icon" style="" viewBox="0 0 1024 1024" version="1.1" xmlns="http://www.w3.org/2000/svg" p-id="2839" xmlns:xlink="http://www.w3.org/1999/xlink" width="200" height="200"><defs><style type="text/css"></style></defs><path d="M535.741 700.732c-3.726-10.646-13.84-17.573-24.488-17.573-11.179 0-21.299 6.926-24.493 17.573l-58.027 161.312c-3.193 9.581-1.066 19.695 5.854 27.148l58.032 60.16c4.788 5.326 11.713 7.987 19.166 7.987 7.454 0 13.841-2.661 19.161-7.987l58.033-60.16c6.92-7.453 9.053-17.568 5.854-27.148l-59.092-161.312z m-24.487 192.72l-27.686-28.747 27.686-77.198 27.681 77.198-27.681 28.747zM904.682 916.879v-1.066c-23.955-98.488-81.454-183.674-161.309-240.107L722.074 660.8l-0.533-0.528c-16.5-10.119-36.2-5.326-45.78 10.648-10.12 16.5-5.326 36.2 10.114 45.78l20.76 14.379c69.212 47.913 116.594 119.786 135.226 202.3 3.195 15.973 15.974 26.62 32.48 26.62h7.453l2.661-1.595c15.439-9.585 22.891-25.024 20.227-41.525z" p-id="2840" fill="#ffffff"></path><path d="M513.914 659.206c163.973 0 297.6-133.627 297.6-297.606 0-164.506-133.627-297.6-297.6-297.6s-297.6 133.095-297.6 297.6c0 55.373 15.435 109.673 44.187 156.525 26.62 43.654 64.42 79.321 109.14 104.346-59.099 23.955-112.866 62.287-155.992 111.268-45.78 52.173-78.26 114.993-94.228 182.074v0.533c-3.199 15.44 5.854 35.667 23.955 39.393h6.387c16.506 0 29.285-10.646 32.478-26.086 37.267-156.52 175.687-270.447 329.546-270.447h2.127zM282.328 361.073c0-127.773 103.813-231.592 231.587-231.592S745.502 233.3 745.502 361.073c0 127.768-103.813 231.587-231.587 231.587-127.774 0.527-231.587-103.819-231.587-231.587z" p-id="2841" fill="#ffffff"></path></svg>